<?xml version="1.0" standalone="no"?>
<!DOCTYPE svg PUBLIC "-//W3C//DTD SVG 20010904//EN"
 "http://www.w3.org/TR/2001/REC-SVG-20010904/DTD/svg10.dtd">
<svg version="1.0" xmlns="http://www.w3.org/2000/svg"
 width="1920.000000pt" height="2550.000000pt" viewBox="0 0 1920.000000 2550.000000"
 preserveAspectRatio="xMidYMid meet">

<g transform="translate(0.000000,2550.000000) scale(0.100000,-0.100000)"
fill="#000000" stroke="none">
<path d="M61 24218 c1 -706 5 -1269 9 -1253 6 24 8 26 9 8 1 -26 23 -30 45 -8
15 15 50 10 40 -6 -3 -5 4 -9 16 -9 12 0 18 5 15 10 -3 6 -2 10 4 10 5 0 11
-5 13 -10 2 -6 27 -11 57 -13 40 -2 55 2 59 13 15 40 42 45 42 8 0 -11 7 -18
20 -18 11 0 20 4 20 10 0 5 7 7 17 3 13 -5 15 -2 11 15 -5 17 -1 23 18 28 13
3 24 10 24 15 0 13 -74 11 -87 -2 -8 -8 -13 -8 -17 0 -4 6 -23 11 -42 11 -33
0 -45 12 -24 25 5 3 10 10 10 15 0 5 -20 -2 -45 -16 -25 -13 -45 -20 -45 -14
0 6 -5 8 -12 4 -20 -13 -88 -16 -88 -5 0 6 -13 11 -30 11 l-30 0 0 87 c0 76 2
85 14 68 13 -18 15 -18 40 -2 26 17 26 17 26 -8 0 -15 4 -24 9 -20 5 3 13 1
16 -5 4 -7 11 -7 18 -2 17 13 58 22 51 11 -3 -5 -1 -9 4 -9 5 0 13 -10 17 -22
7 -22 7 -22 12 -3 3 11 10 23 15 26 7 4 6 9 -1 13 -6 4 -11 2 -11 -3 0 -6 -4
-11 -10 -11 -5 0 -10 11 -10 25 0 32 31 34 54 3 10 -15 14 -17 10 -5 -4 9 -1
17 5 17 6 0 11 -4 11 -10 0 -5 7 -10 15 -10 9 0 15 -9 15 -25 0 -14 6 -25 13
-26 6 0 20 -2 30 -4 9 -2 17 3 17 11 0 22 20 16 29 -8 8 -21 8 -21 15 5 5 23
12 27 41 27 19 0 35 -4 35 -10 0 -5 7 -10 15 -10 9 0 18 -7 21 -15 4 -9 13
-13 24 -10 9 3 23 -1 30 -10 8 -10 9 -15 1 -15 -6 0 -11 -7 -11 -15 0 -8 5
-15 10 -15 6 0 10 -7 10 -15 0 -20 7 -19 31 4 13 12 17 21 10 26 -6 3 -11 13
-11 21 0 11 5 10 22 -6 12 -11 23 -18 25 -16 6 6 -9 36 -18 36 -5 0 -9 7 -9
16 0 8 5 12 10 9 6 -3 10 0 10 9 0 8 -5 16 -11 18 -7 2 -9 13 -5 26 l7 21 47
-21 c26 -11 57 -26 70 -31 15 -7 22 -19 22 -38 0 -29 15 -39 61 -39 16 0 29
-4 29 -10 0 -5 6 -10 14 -10 8 0 17 -8 21 -17 6 -16 8 -16 18 -2 14 18 47 32
47 20 0 -5 -6 -11 -13 -14 -6 -2 -9 -8 -4 -12 9 -10 58 35 51 46 -8 14 6 10
22 -5 8 -8 14 -19 14 -25 0 -18 26 -13 45 9 20 22 50 27 42 7 -8 -22 19 -50
42 -42 13 4 21 2 21 -5 0 -6 4 -9 9 -6 7 5 21 -14 21 -28 0 -1 -28 1 -62 6
-35 4 -101 8 -148 8 -156 2 -199 10 -149 28 23 9 23 9 -8 16 -33 8 -53 2 -53
-15 0 -5 6 -9 14 -9 10 0 12 -7 8 -22 -5 -20 -6 -21 -12 -3 -4 12 -9 15 -13 8
-4 -6 -4 -19 0 -30 6 -15 4 -16 -8 -6 -19 16 -59 6 -52 -13 3 -8 9 -11 14 -8
5 3 9 0 9 -6 0 -6 9 -20 20 -32 11 -12 20 -30 20 -40 0 -13 8 -18 28 -19 15 0
21 -3 15 -6 -7 -2 -13 -12 -13 -20 0 -13 3 -13 15 -3 8 7 25 10 40 6 23 -6 24
-5 14 12 -7 11 -17 19 -23 19 -37 -1 -41 4 -43 48 -1 34 2 45 13 45 8 0 12 -4
9 -10 -3 -5 -2 -10 4 -10 5 0 13 5 16 10 4 7 12 7 18 3 15 -11 239 -9 256 1 6
4 19 2 28 -6 13 -10 17 -10 20 -1 3 9 10 10 23 3 11 -6 35 -8 55 -6 25 3 38 0
42 -10 6 -15 33 -20 33 -5 0 5 11 9 25 9 18 0 25 -6 25 -19 0 -11 5 -19 10
-19 6 0 10 7 10 16 0 11 6 14 23 8 24 -8 23 -8 85 1 48 7 58 -9 11 -19 -27 -5
-29 -7 -16 -21 20 -19 38 -19 31 0 -10 24 22 18 50 -10 14 -14 30 -25 37 -25
8 0 8 -4 -1 -15 -20 -24 3 -43 25 -21 22 22 32 20 12 -2 -10 -10 -17 -24 -17
-30 0 -7 -4 -12 -10 -12 -5 0 -10 -7 -10 -15 0 -8 5 -15 10 -15 6 0 10 7 10
15 0 8 5 15 10 15 6 0 10 -6 10 -14 0 -8 6 -16 13 -19 9 -3 9 -7 0 -19 -15
-17 -7 -29 13 -21 8 3 14 19 14 35 0 23 4 29 15 24 9 -3 15 0 15 10 0 8 5 12
11 8 6 -3 8 -17 4 -31 -3 -14 -2 -22 4 -19 5 3 7 -3 4 -14 -3 -11 -9 -17 -14
-14 -5 3 -9 0 -9 -5 0 -6 5 -11 10 -11 6 0 10 -7 10 -15 0 -8 9 -19 20 -25 18
-9 20 -8 21 17 0 15 3 22 6 15 4 -10 8 -10 19 -1 11 9 14 8 14 -5 0 -9 7 -16
16 -16 8 0 12 4 9 10 -3 5 -1 18 4 29 8 14 7 22 -3 30 -7 6 -16 8 -19 4 -4 -3
-7 5 -7 20 0 14 6 28 13 30 6 3 -3 6 -22 6 -19 1 -31 4 -28 8 4 3 2 12 -5 20
-16 19 -1 30 22 15 17 -10 20 -10 20 3 0 8 5 15 10 15 6 0 9 -6 8 -12 -2 -9 9
-13 34 -12 28 1 38 -3 41 -17 4 -15 -1 -19 -21 -20 -24 0 -25 -1 -7 -8 29 -12
58 -48 50 -61 -4 -7 -18 -10 -32 -7 -13 2 -22 0 -21 -5 2 -5 7 -9 12 -8 5 1
14 -9 20 -22 9 -17 19 -22 39 -20 15 1 27 -2 27 -8 0 -5 -4 -10 -10 -10 -5 0
-9 -15 -9 -32 2 -28 2 -29 6 -8 7 35 33 61 54 55 14 -5 16 -1 12 16 -4 15 -3
20 5 15 7 -4 12 -15 12 -25 0 -26 36 -33 78 -16 36 16 52 13 52 -9 0 -8 10
-12 24 -11 18 2 23 -1 19 -11 -3 -8 -19 -14 -38 -14 -26 0 -35 5 -41 22 l-7
23 -8 -23 c-9 -24 -33 -29 -45 -10 -5 8 -10 6 -14 -8 -6 -15 -1 -22 21 -31 16
-7 29 -16 29 -22 0 -11 -39 -3 -57 12 -9 6 -13 6 -13 -2 0 -6 7 -14 15 -17 8
-4 15 -17 15 -30 0 -26 18 -30 79 -18 38 8 45 43 9 45 -21 1 -21 2 -3 6 11 3
28 14 38 24 21 23 27 24 27 5 0 -7 -10 -16 -22 -19 -18 -5 -19 -8 -9 -21 8 -9
18 -13 23 -10 6 4 7 -2 3 -17 -12 -41 -11 -44 23 -47 21 -2 41 3 51 12 14 13
24 14 49 5 31 -10 37 -22 34 -61 -1 -10 3 -18 8 -18 6 0 10 5 10 11 0 5 4 8 8
5 4 -2 14 -1 22 4 21 13 60 -18 60 -47 0 -18 4 -24 15 -19 12 4 14 0 9 -22 -4
-15 -16 -39 -26 -54 -11 -16 -16 -32 -13 -38 10 -15 23 -12 28 8 3 15 5 15 11
-3 13 -35 24 -50 35 -48 16 4 13 -13 -4 -27 -8 -7 -15 -17 -15 -23 0 -6 3 -7
6 -4 4 4 15 -8 24 -26 14 -25 24 -32 51 -34 24 -2 30 0 19 7 -18 11 -6 25 15
16 13 -5 14 -10 5 -27 -7 -11 -9 -23 -6 -27 3 -3 6 1 6 9 1 9 7 6 20 -9 12
-14 25 -21 32 -16 10 6 11 4 1 -7 -14 -14 -17 -47 -7 -73 4 -11 14 -14 33 -10
22 4 20 1 -14 -20 -22 -14 -45 -26 -51 -26 -17 0 -25 12 -14 25 6 8 5 18 -6
31 -14 16 -15 17 -10 2 6 -21 -4 -54 -13 -41 -9 13 -64 47 -79 49 -16 3 -28
-27 -34 -89 -5 -43 -4 -48 17 -53 25 -6 39 -29 29 -45 -3 -6 -15 -7 -26 -3
-17 5 -19 3 -14 -14 5 -16 2 -22 -16 -25 -13 -2 -8 -4 11 -3 36 1 54 -19 24
-27 -12 -3 -9 -5 9 -6 14 0 29 -7 32 -13 3 -7 3 -1 0 15 -4 16 -2 27 5 27 6 0
11 7 11 16 0 14 -3 14 -15 4 -22 -18 -31 -4 -12 18 11 12 13 22 7 32 -5 8 -7
23 -4 33 3 9 1 17 -5 17 -6 0 -11 7 -11 16 0 13 3 14 13 5 8 -6 16 -8 20 -5 3
3 14 -2 24 -10 10 -9 32 -28 48 -43 29 -25 29 -25 5 -18 -22 7 -23 6 -11 -9 7
-9 19 -16 26 -16 8 0 10 -9 7 -25 -3 -16 -11 -25 -23 -25 -23 0 -45 36 -26 43
7 2 5 3 -3 3 -9 -1 -15 -11 -14 -23 0 -12 -4 -19 -9 -16 -5 3 -7 -5 -5 -18 2
-15 12 -26 28 -30 24 -7 25 -7 2 -8 -13 -1 -21 -5 -17 -11 3 -5 12 -7 20 -3 9
3 15 -1 15 -11 0 -9 7 -16 15 -16 8 0 15 -4 15 -10 0 -5 -14 -7 -30 -5 -22 3
-34 -2 -43 -16 -6 -10 -22 -19 -34 -19 -24 0 -52 38 -36 49 17 11 22 39 8 44
-7 3 -15 -3 -18 -14 -8 -30 -61 -23 -65 9 -2 13 -10 26 -18 29 -9 3 -12 13 -9
24 7 22 4 23 -29 8 -16 -8 -23 -17 -19 -28 3 -10 2 -12 -4 -5 -4 7 -19 14 -33
17 -25 4 -25 4 -2 12 29 10 28 23 -4 35 -23 9 -74 4 -74 -7 0 -2 16 -18 35
-36 45 -42 90 -110 76 -115 -6 -2 -11 -15 -11 -29 0 -20 -3 -23 -13 -14 -8 6
-17 8 -20 4 -4 -3 -7 1 -7 10 0 9 -5 17 -11 17 -15 0 -7 -45 9 -46 23 -3 23
-4 10 -17 -7 -7 -37 -12 -67 -13 -30 0 -49 2 -42 4 21 7 11 22 -14 22 -14 0
-25 5 -25 10 0 6 -4 10 -9 10 -5 0 -8 -8 -7 -17 0 -10 -9 -20 -24 -24 -14 -4
-19 -7 -12 -8 6 -1 12 -10 12 -22 0 -11 -4 -17 -10 -14 -5 3 -10 -1 -10 -10 0
-14 -4 -13 -25 6 -13 13 -25 30 -25 37 0 7 -4 11 -10 7 -5 -3 -7 -11 -4 -18 2
-7 -4 -23 -14 -35 -14 -16 -22 -18 -30 -10 -9 9 -15 9 -24 0 -16 -16 -49 -15
-72 3 -15 11 -23 12 -33 3 -11 -9 -16 -9 -23 1 -4 8 -12 11 -18 7 -5 -3 -15 1
-22 9 -7 8 -21 15 -31 15 -11 0 -19 4 -19 8 0 10 81 86 93 87 4 0 24 16 45 36
20 20 47 39 60 43 12 4 22 14 22 22 0 8 9 23 20 34 11 11 20 16 20 10 0 -5 5
-10 10 -10 6 0 10 6 10 13 0 7 14 25 30 39 23 20 30 34 28 55 -2 23 1 28 18
26 17 -2 20 2 16 22 -5 28 -22 34 -22 8 0 -13 -3 -14 -11 -6 -9 9 -19 8 -42
-3 -24 -13 -31 -13 -38 -3 -5 9 -10 5 -14 -14 -4 -15 -12 -27 -17 -27 -6 0 -8
9 -5 19 7 27 -7 44 -38 46 -34 1 -42 -12 -19 -30 17 -12 21 -12 33 3 13 16 13
15 6 -3 -4 -11 -8 -30 -9 -42 -1 -12 -7 -28 -13 -35 -18 -17 -16 -26 5 -31 10
-3 6 -5 -11 -6 -33 -1 -77 -28 -77 -47 0 -8 -9 -14 -20 -14 -11 0 -35 -15 -53
-34 -18 -18 -47 -41 -65 -50 -18 -9 -32 -21 -32 -26 0 -20 -19 -9 -22 12 -3
26 -38 38 -38 15 0 -9 5 -17 10 -19 12 -4 -10 -58 -22 -58 -12 0 -10 24 3 37
8 8 8 13 0 17 -6 4 -11 0 -11 -9 0 -11 -6 -15 -19 -10 -28 9 -47 -20 -35 -54
9 -24 8 -27 -10 -27 -12 0 -24 5 -28 10 -6 7 -11 6 -17 -4 -13 -19 -3 -33 20
-27 23 6 25 -11 3 -20 -22 -8 -47 9 -55 38 -6 21 -7 21 -8 4 -1 -11 6 -30 14
-42 11 -16 12 -22 2 -26 -6 -2 -17 3 -23 12 -10 13 -14 13 -28 2 -11 -9 -16
-10 -16 -2 0 6 -5 11 -12 11 -9 0 -9 -3 0 -12 7 -7 12 -20 12 -30 0 -14 -8
-18 -32 -18 -21 0 -28 3 -20 8 7 5 10 16 6 26 -5 14 -9 15 -15 4 -7 -10 -9
-10 -9 0 0 10 -7 9 -30 -3 -29 -15 -30 -15 -27 7 1 17 -3 23 -18 24 -11 1 -32
2 -47 3 -19 1 -28 6 -28 18 0 15 -1 15 -13 -2 -16 -20 -39 -12 -30 10 3 8 1
15 -4 15 -6 0 -15 10 -21 23 -9 19 -11 19 -11 4 -1 -24 36 -77 54 -77 8 0 17
-5 21 -12 5 -8 2 -9 -11 -4 -15 5 -16 4 -5 -9 7 -8 16 -12 22 -9 5 3 2 -11 -6
-30 -8 -20 -11 -34 -6 -31 16 10 11 -45 -5 -61 -8 -9 -28 -16 -45 -16 -17 -1
-30 -7 -30 -13 0 -7 -13 -15 -30 -17 -16 -3 -30 -1 -30 4 0 5 -5 6 -10 3 -6
-4 -10 5 -10 19 0 14 -5 26 -11 26 -6 0 -8 7 -5 16 3 8 2 13 -3 9 -5 -3 -17 2
-25 11 -12 12 -20 13 -29 5 -10 -7 -18 -5 -30 9 -9 11 -23 17 -32 14 -17 -7
-21 -24 -5 -24 6 0 10 5 10 12 0 6 3 8 7 4 12 -12 9 -40 -5 -54 -16 -17 -5
-35 17 -27 15 6 15 5 0 -10 -12 -12 -21 -14 -42 -6 -15 6 -27 7 -27 2 0 -11
-32 -10 -47 1 -8 7 -18 5 -29 -6 -12 -13 -19 -14 -30 -6 -7 7 -21 10 -31 8
-10 -2 -24 3 -31 12 -11 13 -12 12 -10 -5 3 -19 -4 -20 -147 -23 -242 -5 -317
-3 -332 10 -10 8 -16 9 -21 1 -11 -18 -47 -20 -47 -3 0 8 6 14 13 13 6 -2 12
2 12 7 0 6 8 10 17 10 15 0 14 2 -3 15 -26 20 -34 19 -34 -5 0 -11 -4 -20 -10
-20 -5 0 -10 -6 -10 -14 0 -10 -17 -17 -54 -21 -79 -10 -99 7 -46 38 17 10 30
15 30 12 0 -3 16 10 37 30 20 19 40 35 45 35 4 0 8 8 7 18 0 9 -3 12 -5 5 -4
-9 -13 -9 -30 -2 -34 12 -34 12 -34 -14 0 -13 -7 -32 -16 -43 -14 -18 -15 -18
-8 6 4 14 9 31 12 39 4 11 1 11 -16 2 -12 -7 -22 -17 -22 -23 0 -6 -3 -9 -6
-5 -4 3 -13 -1 -22 -9 -12 -13 -16 -13 -23 -2 -5 7 -9 -4783 -9 -10644 l0
-10658 9555 0 9555 0 0 12750 0 12750 -9555 0 -9555 0 1 -1282z m1139 -981 c0
-4 -6 -2 -14 5 -8 7 -12 17 -9 22 5 8 23 -12 23 -27z m340 -217 c0 -5 -4 -10
-10 -10 -5 0 -10 5 -10 10 0 6 5 10 10 10 6 0 10 -4 10 -10z m-1376 -15 c3 -8
1 -15 -4 -15 -6 0 -10 7 -10 15 0 8 2 15 4 15 2 0 6 -7 10 -15z m63 -7 c-3 -8
-6 -5 -6 6 -1 11 2 17 5 13 3 -3 4 -12 1 -19z m978 -28 c-3 -5 -12 -10 -18
-10 -7 0 -6 4 3 10 19 12 23 12 15 0z m492 -46 c-3 -3 -12 -4 -19 -1 -8 3 -5
6 6 6 11 1 17 -2 13 -5z m133 -24 c0 -5 -4 -10 -10 -10 -5 0 -10 5 -10 10 0 6
5 10 10 10 6 0 10 -4 10 -10z m31 -30 c11 0 19 -4 19 -10 0 -5 -10 -10 -21
-10 -18 0 -19 -2 -9 -15 10 -12 10 -19 2 -27 -9 -9 -12 -8 -12 5 0 9 -7 17
-15 17 -8 0 -15 -7 -15 -16 0 -8 -5 -12 -10 -9 -6 4 -8 11 -5 16 4 5 3 15 -2
22 -18 29 -12 39 19 33 17 -3 39 -6 49 -6z m6056 -16 c32 -3 61 -8 66 -11 20
-12 28 -65 28 -171 0 -90 4 -120 17 -139 12 -20 16 -51 17 -132 0 -58 4 -109
10 -113 6 -5 5 -11 -3 -16 -9 -6 -12 -27 -10 -68 3 -55 4 -59 28 -59 20 0 26
-6 30 -29 6 -32 39 -60 47 -38 3 6 12 12 20 12 13 0 13 3 2 16 -25 30 -20 43
12 32 16 -5 29 -14 29 -19 0 -5 9 -9 19 -9 15 0 19 -7 19 -30 -1 -17 -5 -33
-10 -36 -26 -16 31 -124 66 -124 6 0 28 -9 49 -19 20 -10 37 -15 37 -10 0 4 6
6 14 3 8 -3 12 -12 9 -20 -3 -8 0 -14 6 -14 6 0 8 -7 5 -15 -7 -17 -3 -18 47
-6 21 5 43 5 50 0 11 -7 9 -9 -6 -9 -18 -1 -19 -1 -2 -11 9 -5 21 -7 27 -4 5
3 14 -4 20 -15 6 -11 18 -20 28 -19 15 0 15 1 -1 7 -15 6 -10 13 29 40 25 18
49 31 52 28 3 -3 0 -6 -6 -6 -7 0 -12 -9 -12 -21 0 -15 4 -19 16 -15 9 4 22 1
30 -5 21 -17 -11 -79 -41 -79 -5 0 -3 5 5 10 10 6 11 10 3 10 -7 0 -13 5 -13
10 0 6 6 10 13 8 7 -2 14 1 15 7 3 15 -41 12 -59 -5 -22 -22 -12 -50 20 -50
22 -1 24 -2 9 -11 -21 -12 -24 -41 -4 -33 8 3 17 1 21 -5 5 -9 -11 -15 -35
-13 -16 1 -3 -45 17 -61 22 -18 22 -47 0 -43 -35 6 -87 29 -82 36 6 9 -18 20
-43 20 -15 0 -15 -2 -2 -11 24 -16 -22 -3 -125 38 -108 42 -157 71 -149 85 4
6 2 8 -3 5 -14 -9 -70 53 -128 142 -26 39 -51 74 -57 77 -20 13 -20 -6 1 -41
11 -20 21 -49 21 -65 0 -16 7 -30 16 -34 9 -4 14 -13 10 -21 -3 -9 1 -18 10
-22 21 -8 29 4 14 22 -7 9 -11 17 -9 19 2 3 25 -22 51 -54 26 -33 43 -62 38
-65 -6 -4 -10 1 -10 9 0 9 -6 16 -13 16 -7 0 -18 10 -26 22 l-14 22 -9 -23
c-4 -13 -5 -33 -1 -45 4 -12 6 -28 5 -37 -4 -28 17 -71 30 -63 10 6 9 3 0 -8
-11 -14 -10 -21 6 -45 11 -15 23 -43 27 -60 7 -37 2 -39 -53 -24 -37 11 -39 5
-21 -63 6 -22 14 -56 19 -73 5 -20 4 -33 -2 -33 -5 0 -6 -4 -3 -10 3 -6 -4
-10 -18 -10 -32 0 -84 86 -143 238 -64 167 -77 262 -93 687 -5 116 -13 226
-20 246 -14 45 -61 358 -61 409 0 38 1 39 25 30 13 -5 50 -12 82 -16z m-6053
-85 c-6 -11 -24 -2 -24 11 0 5 7 7 15 4 8 -4 12 -10 9 -15z m46 -39 c0 -5 -6
-10 -14 -10 -8 0 -18 5 -21 10 -3 6 3 10 14 10 12 0 21 -4 21 -10z m340 -221
c0 -5 -4 -9 -8 -9 -5 0 -9 7 -9 15 0 8 4 12 9 9 4 -3 8 -9 8 -15z m6335 11 c5
-8 11 -7 21 1 8 6 14 8 14 3 0 -5 22 -9 49 -10 26 0 54 -6 62 -13 38 -33 149
-111 158 -111 11 0 51 -39 51 -51 0 -3 -13 -12 -30 -19 -16 -7 -32 -20 -35
-30 -6 -17 -63 -45 -73 -36 -2 3 -11 -2 -19 -10 -9 -8 -25 -14 -37 -13 -11 1
-30 -2 -41 -6 -10 -5 -89 -9 -175 -9 -130 -1 -161 2 -191 17 -20 10 -40 17
-45 16 -22 -4 -32 3 -38 26 -6 22 6 37 85 115 50 50 97 90 105 90 8 0 14 4 14
9 0 8 82 39 107 40 6 1 15 -4 18 -9z m-6234 -27 c-8 -15 -10 -15 -11 -2 0 17
10 32 18 25 2 -3 -1 -13 -7 -23z m49 -13 c0 -5 -4 -10 -10 -10 -5 0 -10 5 -10
10 0 6 5 10 10 10 6 0 10 -4 10 -10z m200 -61 c0 -5 -7 -9 -15 -9 -9 0 -12 6
-9 15 6 15 24 11 24 -6z m40 1 c0 -5 -7 -10 -16 -10 -8 0 -12 5 -9 10 3 6 10
10 16 10 5 0 9 -4 9 -10z m50 -20 c0 -5 -2 -10 -4 -10 -3 0 -8 5 -11 10 -3 6
-1 10 4 10 6 0 11 -4 11 -10z m-60 -30 c0 -5 -4 -10 -9 -10 -6 0 -13 5 -16 10
-3 6 1 10 9 10 9 0 16 -4 16 -10z m150 -80 c0 -5 -2 -10 -4 -10 -3 0 -8 5 -11
10 -3 6 -1 10 4 10 6 0 11 -4 11 -10z m4763 -79 c-4 -14 -7 -38 -6 -53 2 -24
-2 -28 -22 -28 -16 0 -25 6 -25 15 0 8 -7 15 -16 15 -13 0 -15 6 -9 28 10 40
32 60 60 54 21 -4 24 -8 18 -31z m1733 -53 c4 -51 7 -102 5 -113 -4 -25 1 -20
29 29 12 21 24 62 27 90 3 28 11 54 17 59 8 5 6 10 -4 18 -11 7 -11 9 -1 7 16
-4 63 -117 57 -135 -3 -7 -1 -15 4 -18 5 -3 4 -19 -2 -38 -5 -17 -11 -69 -13
-114 -3 -49 -11 -97 -20 -117 -9 -19 -14 -39 -11 -45 10 -16 -5 -40 -21 -34
-11 4 -14 2 -9 -5 8 -13 -45 -18 -58 -5 -16 17 -38 9 -52 -19 -9 -17 -11 -27
-6 -24 15 9 26 -14 13 -27 -8 -8 -11 -8 -11 2 0 6 -29 -17 -66 -53 -36 -36
-72 -66 -80 -66 -29 0 -55 36 -56 78 0 22 3 45 6 51 4 6 9 39 12 73 5 68 21
128 34 128 4 0 16 25 26 56 18 57 53 104 79 104 19 0 22 6 40 96 30 144 50
151 61 22z m-1186 1 c0 -5 -7 -9 -15 -9 -9 0 -15 9 -15 21 0 18 2 19 15 9 8
-7 15 -16 15 -21z m-1555 11 c3 -5 1 -10 -4 -10 -6 0 -11 5 -11 10 0 6 2 10 4
10 3 0 8 -4 11 -10z m1590 0 c3 -5 -1 -10 -9 -10 -9 0 -16 5 -16 10 0 6 4 10
9 10 6 0 13 -4 16 -10z m287 -16 c63 -26 105 -51 97 -57 -7 -7 -177 13 -204
23 -18 7 -25 17 -25 35 0 22 4 25 35 25 19 0 63 -12 97 -26z m-5723 -4 c-10
-7 -10 -12 0 -23 6 -9 8 -18 3 -21 -14 -9 -33 39 -20 52 6 6 15 9 21 5 5 -3 4
-9 -4 -13z m128 -10 c-2 -29 -17 -24 -17 6 0 14 4 23 9 19 6 -3 9 -14 8 -25z
m1673 -5 c0 -5 -5 -3 -10 5 -5 8 -10 20 -10 25 0 6 5 3 10 -5 5 -8 10 -19 10
-25z m3117 29 c-3 -3 -12 -4 -19 -1 -8 3 -5 6 6 6 11 1 17 -2 13 -5z m1191 -9
c-15 -13 -139 -74 -161 -79 -64 -15 -44 9 34 41 46 19 91 38 99 43 13 7 37 3
28 -5z m-2133 -15 c-3 -5 -11 -10 -16 -10 -6 0 -7 5 -4 10 3 6 11 10 16 10 6
0 7 -4 4 -10z m1471 -14 c-1 -18 -4 -22 -13 -14 -10 8 -10 13 0 23 7 8 13 14
13 15 1 0 1 -11 0 -24z m-3752 -1 c-6 -16 -24 -21 -24 -7 0 11 11 22 21 22 5
0 6 -7 3 -15z m2244 4 c-2 -6 -7 -10 -11 -10 -4 1 -14 1 -22 1 -8 0 -15 5 -15
10 0 6 12 10 26 10 14 0 24 -5 22 -11z m72 -4 c0 -8 -7 -15 -15 -15 -16 0 -20
12 -8 23 11 12 23 8 23 -8z m-2370 -16 c0 -6 -4 -7 -10 -4 -5 3 -10 11 -10 16
0 6 5 7 10 4 6 -3 10 -11 10 -16z m-1450 1 c0 -5 -2 -10 -4 -10 -3 0 -8 5 -11
10 -3 6 -1 10 4 10 6 0 11 -4 11 -10z m1007 -22 c-3 -7 -5 -2 -5 12 0 14 2 19
5 13 2 -7 2 -19 0 -25z m3653 5 c0 -8 -4 -12 -9 -9 -5 4 -12 0 -14 -6 -4 -10
-8 -10 -15 1 -7 9 -6 18 1 26 15 15 37 8 37 -12z m-880 13 c0 -3 -4 -8 -10
-11 -5 -3 -10 -1 -10 4 0 6 5 11 10 11 6 0 10 -2 10 -4z m-3546 -14 c2 -4 -4
-9 -15 -9 -11 -1 -17 2 -14 8 7 11 22 12 29 1z m832 -16 c0 -13 -6 -22 -12
-19 -7 2 -10 13 -7 24 7 27 21 24 19 -5z m3174 -7 c0 -25 15 -24 39 3 19 20
21 20 27 3 5 -11 1 -22 -9 -30 -19 -14 -23 -35 -6 -35 6 0 4 -7 -5 -15 -8 -8
-22 -15 -30 -15 -9 0 -16 -4 -16 -10 0 -5 -7 -10 -16 -10 -8 0 -12 5 -9 10 3
6 0 10 -7 10 -7 0 -2 7 10 16 29 20 29 44 0 36 -23 -5 -23 -5 -4 16 17 19 17
22 2 28 -9 3 -14 10 -11 15 9 14 35 -2 35 -22z m-430 12 c0 -6 -4 -13 -10 -16
-5 -3 -10 1 -10 9 0 9 5 16 10 16 6 0 10 -4 10 -9z m704 -26 c2 -6 -8 -38 -22
-70 -14 -33 -38 -109 -54 -170 -57 -212 -56 -205 -40 -249 9 -28 10 -42 3 -44
-6 -2 -18 -11 -27 -20 -13 -13 -17 -13 -25 -1 -31 48 -1 365 44 469 8 19 29
54 46 78 28 37 33 41 51 30 11 -7 21 -17 24 -23z m1183 29 c-3 -3 -12 -4 -19
-1 -8 3 -5 6 6 6 11 1 17 -2 13 -5z m-4247 -40 c0 -17 -5 -24 -20 -24 -11 0
-23 -7 -26 -15 -4 -8 -15 -15 -25 -15 -10 0 -19 -5 -19 -11 0 -5 -5 -7 -10 -4
-8 5 -7 11 1 21 6 8 14 12 17 9 8 -8 62 46 62 62 0 8 5 11 10 8 6 -3 10 -17
10 -31z m-60 -4 c0 -5 -4 -10 -10 -10 -5 0 -10 5 -10 10 0 6 5 10 10 10 6 0
10 -4 10 -10z m386 -77 c-10 -11 -19 -7 -22 10 -2 15 0 16 12 6 8 -6 12 -14
10 -16z m4268 5 c-5 -8 -2 -9 9 -5 23 9 27 -5 6 -25 -16 -15 -18 -15 -23 5 -5
20 0 37 10 37 3 0 2 -5 -2 -12z m-4229 -7 c3 -5 1 -12 -5 -16 -5 -3 -10 1 -10
9 0 18 6 21 15 7z m-405 -11 c0 -5 -4 -10 -9 -10 -6 0 -13 5 -16 10 -3 6 1 10
9 10 9 0 16 -4 16 -10z m2880 6 c0 -3 -4 -8 -10 -11 -5 -3 -10 -1 -10 4 0 6 5
11 10 11 6 0 10 -2 10 -4z m-30 -20 c0 -3 -4 -8 -10 -11 -5 -3 -10 -1 -10 4 0
6 5 11 10 11 6 0 10 -2 10 -4z m1701 -38 l21 -23 -7 25 c-6 20 -5 23 5 13 32
-30 15 -107 -22 -102 -27 3 -36 -1 -41 -21 -3 -11 -13 -20 -23 -20 -17 0 -17
1 1 13 16 13 13 43 -4 33 -4 -3 -8 11 -9 30 -2 19 1 34 7 34 10 0 24 -38 21
-59 -1 -10 3 -9 16 3 15 15 15 19 3 28 -11 7 -11 11 -1 15 14 6 16 33 2 33 -5
0 -10 5 -10 10 0 17 18 11 41 -12z m-2611 -18 c0 -21 -16 -26 -39 -11 -18 11
-5 31 20 31 12 0 19 -7 19 -20z m34 5 c3 -8 1 -15 -4 -15 -6 0 -10 7 -10 15 0
8 2 15 4 15 2 0 6 -7 10 -15z m852 -12 c-10 -10 -19 5 -10 18 6 11 8 11 12 0
2 -7 1 -15 -2 -18z m2318 12 c-6 -16 -24 -21 -24 -7 0 11 11 22 21 22 5 0 6
-7 3 -15z m957 -13 c-11 -16 -28 -35 -38 -43 -10 -8 -3 5 16 29 37 47 53 58
22 14z m-904 12 c-3 -3 -12 -4 -19 -1 -8 3 -5 6 6 6 11 1 17 -2 13 -5z m-987
-8 c0 -2 -7 -7 -16 -10 -8 -3 -12 -2 -9 4 6 10 25 14 25 6z m-5245 -16 c3 -5
1 -10 -4 -10 -6 0 -11 5 -11 10 0 6 2 10 4 10 3 0 8 -4 11 -10z m1200 -10 c3
-6 -1 -7 -9 -4 -18 7 -21 14 -7 14 6 0 13 -4 16 -10z m4285 0 c0 -5 -4 -10
-10 -10 -5 0 -10 5 -10 10 0 6 5 10 10 10 6 0 10 -4 10 -10z m-45 -10 c3 -5
-1 -10 -10 -10 -9 0 -13 5 -10 10 3 6 8 10 10 10 2 0 7 -4 10 -10z m-2385 -11
c0 -12 -42 -39 -61 -39 -18 0 -29 17 -22 35 4 12 83 16 83 4z m412 -11 c-7 -7
-12 -8 -12 -2 0 14 12 26 19 19 2 -3 -1 -11 -7 -17z m-2282 -18 c6 -11 5 -21
-2 -28 -18 -18 -28 -14 -28 9 0 11 -4 18 -10 14 -5 -3 -7 -12 -4 -19 3 -8 1
-17 -5 -21 -11 -6 -15 6 -11 40 4 37 41 41 60 5z m5060 20 c0 -5 -7 -7 -15 -4
-8 4 -15 8 -15 10 0 2 7 4 15 4 8 0 15 -4 15 -10z m-2370 -14 c0 -5 3 -6 7 -3
3 4 12 2 20 -4 14 -12 17 -49 7 -87 -7 -26 -48 -40 -69 -22 -8 6 -19 9 -25 5
-5 -3 -10 1 -10 9 0 9 -4 16 -10 16 -14 0 -13 33 2 48 9 9 9 15 0 24 -19 19
-14 23 33 23 25 0 45 -4 45 -9z m-3070 -6 c0 -5 8 -10 18 -10 9 0 23 -9 30
-20 7 -11 8 -20 3 -20 -6 0 -13 5 -16 11 -4 6 -13 8 -21 5 -23 -9 -55 15 -42
31 12 15 28 17 28 3z m6270 3 c-1 -13 -40 -56 -46 -50 -3 3 5 17 17 31 24 27
29 31 29 19z m-5663 -40 c-8 -7 -37 9 -31 19 3 5 12 4 20 -3 8 -6 13 -14 11
-16z m4788 18 c9 -16 -9 -20 -23 -5 -10 12 -10 14 2 14 8 0 17 -4 21 -9z
m-3365 -7 c0 0 -8 -9 -19 -18 -17 -16 -19 -16 -23 2 -4 16 -1 19 18 18 13 0
24 -1 24 -2z m742 -20 c-3 -17 -8 -22 -15 -15 -7 7 -6 15 3 26 17 20 18 19 12
-11z m194 -6 c-2 -18 -8 -34 -14 -36 -17 -5 -19 42 -2 55 21 17 20 17 16 -19z
m1723 7 c3 -17 2 -17 -13 -3 -19 20 -21 31 -3 26 6 -3 14 -13 16 -23z m-1974
5 c3 -5 1 -10 -4 -10 -6 0 -11 5 -11 10 0 6 2 10 4 10 3 0 8 -4 11 -10z m2055
-9 c0 -8 -29 -37 -31 -30 -7 35 -6 39 12 39 10 0 19 -4 19 -9z m-2303 -28 c1
-25 0 -26 -12 -10 -6 9 -18 17 -26 18 -8 0 -5 4 6 9 29 13 30 12 32 -17z
m2113 17 c0 -5 -5 -10 -11 -10 -5 0 -7 5 -4 10 3 6 8 10 11 10 2 0 4 -4 4 -10z
m-2350 -15 c0 -9 -6 -12 -16 -8 -13 5 -13 7 -2 14 17 11 18 11 18 -6z m157 -7
c-3 -8 -6 -5 -6 6 -1 11 2 17 5 13 3 -3 4 -12 1 -19z m216 7 c-3 -9 -8 -14
-10 -11 -3 3 -2 9 2 15 9 16 15 13 8 -4z m2050 -2 c-5 -14 -1 -15 30 -10 34 5
37 4 37 -19 0 -14 -6 -24 -14 -24 -8 0 -21 -3 -30 -6 -10 -4 -16 -1 -16 9 0 9
-7 23 -16 31 -8 9 -12 20 -9 26 10 17 25 11 18 -7z m-4144 -24 c-11 -7 -11
-12 -2 -27 7 -13 8 -23 1 -33 -8 -11 -9 -10 -4 4 3 9 1 17 -4 17 -6 0 -10 -4
-10 -10 0 -5 -5 -10 -12 -10 -9 0 -9 3 0 12 17 17 15 31 -3 24 -9 -3 -15 0
-15 9 0 8 9 15 20 15 11 0 20 5 20 11 0 5 5 7 11 3 8 -4 7 -9 -2 -15z m4131
-13 c0 -11 -19 -15 -25 -6 -3 5 1 10 9 10 9 0 16 -2 16 -4z m-3345 -16 c3 -5
2 -10 -4 -10 -5 0 -13 5 -16 10 -3 6 -2 10 4 10 5 0 13 -4 16 -10z m1740 1 c3
-5 1 -12 -5 -16 -5 -3 -10 1 -10 9 0 18 6 21 15 7z m1135 -29 c0 -7 -4 -10
-10 -7 -5 3 -19 1 -30 -5 -13 -7 -20 -7 -20 0 0 5 5 10 11 10 6 0 9 8 7 18 -5
17 -2 17 18 8 13 -6 24 -17 24 -24z m38 18 c12 -11 28 -20 37 -20 9 0 28 -6
43 -14 35 -18 178 -66 197 -66 8 0 15 -4 15 -10 0 -5 -7 -10 -16 -10 -8 0 -12
-4 -9 -10 9 -15 -17 -12 -61 6 -21 9 -45 18 -53 20 -63 15 -85 22 -76 23 5 1
0 8 -12 16 -12 8 -28 12 -37 9 -11 -4 -16 0 -16 13 0 11 -11 25 -25 31 -14 6
-25 16 -25 22 0 16 14 12 38 -10z m-2823 0 c3 -5 1 -10 -4 -10 -6 0 -11 5 -11
10 0 6 2 10 4 10 3 0 8 -4 11 -10z m-1445 -4 c0 -11 -19 -15 -25 -6 -3 5 1 10
9 10 9 0 16 -2 16 -4z m4812 -18 c-7 -7 -12 -8 -12 -2 0 14 12 26 19 19 2 -3
-1 -11 -7 -17z m-126 -4 c-3 -9 -6 -18 -6 -20 0 -2 -7 -4 -15 -4 -13 0 -13 3
-3 20 15 24 33 27 24 4z m-1716 -3 c0 -6 -4 -13 -10 -16 -5 -3 -10 1 -10 9 0
9 5 16 10 16 6 0 10 -4 10 -9z m1750 -27 c0 -8 -4 -14 -9 -14 -11 0 -22 26
-14 34 9 9 23 -3 23 -20z m-499 -27 c-13 -13 -31 1 -31 25 0 21 1 21 20 3 13
-12 17 -22 11 -28z m-5501 -27 c0 -5 -10 -10 -22 -10 -19 0 -20 2 -8 10 19 13
30 13 30 0z m5503 -12 c4 -10 7 -10 14 -1 6 8 14 9 23 3 13 -8 12 -10 -3 -10
-10 0 -16 -4 -13 -9 7 -10 -9 -8 -36 4 -10 4 -15 11 -12 16 8 13 21 11 27 -3z
m515 -2 c-7 -8 -15 -12 -17 -11 -5 6 10 25 20 25 5 0 4 -6 -3 -14z m-6241 -12
c-3 -3 -12 -4 -19 -1 -8 3 -5 6 6 6 11 1 17 -2 13 -5z m6153 -14 c6 -11 7 -20
2 -20 -6 0 -12 9 -15 20 -3 11 -3 20 -1 20 2 0 8 -9 14 -20z m-6930 1 c0 -13
-28 -22 -35 -11 -3 4 1 11 7 13 20 8 28 8 28 -2z m563 -21 c-5 -19 -23 -39
-23 -25 0 9 20 45 24 45 2 0 2 -9 -1 -20z m37 -16 c0 -8 -4 -14 -10 -14 -5 0
-10 9 -10 21 0 11 5 17 10 14 6 -3 10 -13 10 -21z m-438 -26 c14 -14 18 -23
10 -26 -16 -5 -15 -29 1 -35 6 -2 9 -8 5 -12 -5 -5 -16 1 -25 12 -24 26 -53
36 -69 22 -8 -7 -14 -7 -14 -1 0 16 29 35 46 28 12 -4 14 -1 9 14 -8 26 9 26
37 -2z m44 -52 c8 -8 11 -17 6 -20 -4 -2 -13 4 -20 15 -14 22 -7 25 14 5z
m-568 -52 c13 8 46 -30 37 -43 -3 -6 -12 -11 -20 -11 -8 0 -17 -5 -21 -12 -4
-7 -3 -8 4 -4 7 4 12 1 12 -8 0 -9 7 -16 15 -16 8 0 15 9 15 19 0 11 5 23 10
26 6 3 10 -2 10 -12 0 -11 5 -24 12 -31 9 -9 5 -12 -17 -13 -17 -1 -33 -1 -37
0 -5 0 -8 -4 -8 -11 0 -15 -15 0 -15 15 0 7 -7 12 -15 11 -9 -1 -16 9 -16 23
-1 14 4 23 12 23 20 0 17 10 -7 31 -12 10 -18 23 -13 30 5 9 10 7 20 -5 7 -10
17 -15 22 -12z m-18 -108 c0 -3 -4 -8 -10 -11 -5 -3 -10 -1 -10 4 0 6 5 11 10
11 6 0 10 -2 10 -4z m-1259 -157 c-9 -23 -10 -22 -10 11 -1 23 2 31 9 24 7 -7
7 -19 1 -35z m229 22 c-5 -11 -15 -21 -22 -24 -7 -2 -10 -8 -6 -12 4 -4 15 0
24 9 9 9 19 14 22 11 3 -3 -4 -15 -15 -27 -19 -19 -23 -19 -37 -6 -8 9 -12 18
-9 22 3 3 0 12 -6 20 -10 12 -7 15 21 19 18 2 34 5 36 5 1 1 -2 -7 -8 -17z
m280 5 c0 -19 -36 -48 -57 -46 -29 3 -43 1 -40 -7 1 -5 -1 -9 -5 -10 -19 -7
-28 -1 -28 16 0 11 -4 23 -10 26 -5 3 -10 1 -10 -5 0 -7 -7 -10 -15 -6 -10 4
-15 -1 -15 -14 0 -11 -4 -20 -10 -20 -5 0 -10 14 -10 30 0 22 -5 30 -17 31
-12 0 -13 2 -5 6 7 3 19 -1 27 -7 12 -10 15 -10 15 2 0 11 19 14 90 15 68 2
90 -1 90 -11z m110 -1 c0 -8 -4 -15 -10 -15 -5 0 -10 7 -10 15 0 8 5 15 10 15
6 0 10 -7 10 -15z m150 7 c0 -10 -22 -32 -32 -32 -4 0 -8 6 -8 14 0 9 -13 16
-32 19 -23 3 -16 4 20 5 28 1 52 -2 52 -6z m-620 -12 c12 -8 11 -10 -7 -10
-13 0 -23 5 -23 10 0 13 11 13 30 0z m675 -10 c-3 -5 -11 -10 -16 -10 -6 0 -7
5 -4 10 3 6 11 10 16 10 6 0 7 -4 4 -10z m-530 -9 c7 -12 -12 -24 -25 -16 -11
7 -4 25 10 25 5 0 11 -4 15 -9z m-235 -11 c0 -5 -4 -10 -10 -10 -5 0 -10 5
-10 10 0 6 5 10 10 10 6 0 10 -4 10 -10z m5680 -5863 c0 -20 -1 -20 -16 -5 -9
9 -13 21 -9 27 10 16 25 3 25 -22z m-20 -167 c-5 -25 -17 -80 -25 -122 -16
-78 -33 -105 -60 -94 -28 10 -13 137 31 259 l17 49 23 -24 c20 -21 22 -28 14
-68z m-141 -285 c10 -39 15 -45 31 -40 17 5 17 2 -6 -45 -13 -27 -28 -50 -33
-50 -19 0 -69 51 -75 75 -5 18 0 35 16 58 47 67 50 67 67 2z m-64 -185 c52
-42 61 -58 42 -78 -14 -14 -21 -11 -71 27 -55 41 -62 53 -50 85 7 18 20 13 79
-34z m-32 -101 c71 -55 72 -56 58 -78 -7 -10 -22 -4 -72 30 -80 54 -92 66 -85
84 9 25 29 17 99 -36z m1882 -3697 c6 -4 11 -27 12 -52 6 -122 14 -227 17
-244 4 -17 0 -18 -39 -13 -24 4 -75 21 -114 38 l-71 32 6 36 c9 51 22 71 44
71 14 0 20 7 21 23 2 56 14 78 58 101 30 16 52 19 66 8z m-119 -308 c34 -15
86 -29 122 -32 61 -5 63 -6 92 -49 41 -61 60 -99 60 -121 0 -26 28 -49 148
-122 113 -69 138 -96 98 -106 -29 -7 -114 10 -165 33 -199 90 -231 113 -231
168 0 34 -27 73 -40 58 -3 -4 -12 -40 -18 -78 -6 -39 -23 -104 -37 -145 -13
-41 -25 -85 -25 -97 0 -24 -3 -23 150 -48 172 -29 162 -31 -245 -51 -66 -3
-115 -2 -109 3 42 31 69 154 105 493 11 106 14 120 27 120 5 0 36 -12 68 -26z
m329 -574 c3 -5 -3 -10 -14 -10 -11 0 -23 5 -26 10 -3 6 3 10 14 10 11 0 23
-4 26 -10z m-65 -43 c41 -14 54 -47 19 -47 -12 0 -31 -8 -42 -17 -17 -16 -41
-18 -201 -18 -160 1 -239 8 -320 32 -16 4 -15 7 10 24 25 16 50 19 164 20 74
1 162 5 195 9 90 11 136 10 175 -3z m-515 -86 c71 -18 277 -34 372 -28 83 5
91 4 86 -11 -15 -45 -90 -55 -196 -27 -76 20 -74 20 -82 -14 -3 -16 -13 -35
-20 -41 -20 -17 -86 -3 -151 31 -30 15 -60 26 -67 24 -26 -10 -37 9 -26 48 8
29 14 37 27 33 9 -3 35 -9 57 -15z"/>
<path d="M7830 22850 c0 -5 5 -10 10 -10 6 0 10 5 10 10 0 6 -4 10 -10 10 -5
0 -10 -4 -10 -10z"/>
<path d="M8210 22081 c0 -17 18 -21 24 -6 3 9 0 15 -9 15 -8 0 -15 -4 -15 -9z"/>
<path d="M8168 22073 c6 -2 18 -2 25 0 6 3 1 5 -13 5 -14 0 -19 -2 -12 -5z"/>
<path d="M8125 21889 c-9 -14 -2 -20 14 -10 8 6 9 11 3 15 -6 3 -14 1 -17 -5z"/>
<path d="M8040 21874 c0 -8 5 -12 10 -9 6 3 10 10 10 16 0 5 -4 9 -10 9 -5 0
-10 -7 -10 -16z"/>
<path d="M8435 21800 c3 -5 10 -10 16 -10 5 0 9 5 9 10 0 6 -7 10 -16 10 -8 0
-12 -4 -9 -10z"/>
<path d="M8500 21760 c0 -5 5 -10 11 -10 5 0 7 5 4 10 -3 6 -8 10 -11 10 -2 0
-4 -4 -4 -10z"/>
<path d="M8520 21730 c0 -5 5 -10 10 -10 6 0 10 5 10 10 0 6 -4 10 -10 10 -5
0 -10 -4 -10 -10z"/>
<path d="M8578 21733 c7 -3 16 -2 19 1 4 3 -2 6 -13 5 -11 0 -14 -3 -6 -6z"/>
<path d="M8585 21600 c3 -5 8 -10 11 -10 2 0 4 5 4 10 0 6 -5 10 -11 10 -5 0
-7 -4 -4 -10z"/>
<path d="M8596 22351 c-7 -11 53 -21 74 -13 11 4 8 8 -10 13 -36 10 -58 10
-64 0z"/>
<path d="M9271 22004 c0 -11 3 -14 6 -6 3 7 2 16 -1 19 -3 4 -6 -2 -5 -13z"/>
<path d="M7230 21540 c0 -5 5 -10 11 -10 5 0 7 5 4 10 -3 6 -8 10 -11 10 -2 0
-4 -4 -4 -10z"/>
<path d="M7100 21742 c0 -5 7 -13 16 -16 10 -4 14 -1 12 6 -5 15 -28 23 -28
10z"/>
<path d="M550 21084 c0 -8 5 -12 10 -9 6 3 10 10 10 16 0 5 -4 9 -10 9 -5 0
-10 -7 -10 -16z"/>
<path d="M7423 10703 c-8 -3 -13 -23 -12 -51 0 -41 1 -44 10 -22 8 19 20 82
15 79 0 0 -7 -3 -13 -6z"/>
<path d="M739 23166 c-5 -23 -1 -33 20 -44 33 -17 36 -10 6 22 -14 15 -26 25
-26 22z"/>
<path d="M795 23150 c3 -5 8 -10 11 -10 2 0 4 5 4 10 0 6 -5 10 -11 10 -5 0
-7 -4 -4 -10z"/>
<path d="M146 23135 c4 -8 10 -15 15 -15 5 0 9 7 9 15 0 8 -7 15 -15 15 -9 0
-12 -6 -9 -15z"/>
<path d="M300 23136 c0 -8 5 -18 10 -21 6 -3 10 1 10 9 0 8 -4 18 -10 21 -5 3
-10 -1 -10 -9z"/>
<path d="M270 23085 c-7 -8 -16 -12 -21 -9 -5 3 -9 0 -9 -5 0 -6 4 -11 9 -11
13 0 58 39 45 40 -6 0 -17 -7 -24 -15z"/>
<path d="M678 23024 c-4 -3 -28 -6 -54 -6 -27 0 -52 -2 -56 -4 -13 -8 4 -35
18 -30 8 3 25 1 39 -4 16 -6 25 -6 25 0 0 6 -5 10 -11 10 -5 0 -7 5 -4 10 5 8
11 8 20 0 10 -9 16 -6 25 9 10 20 9 27 -2 15z"/>
<path d="M520 23010 c0 -5 5 -10 10 -10 6 0 10 5 10 10 0 6 -4 10 -10 10 -5 0
-10 -4 -10 -10z"/>
<path d="M760 23000 c0 -5 4 -10 9 -10 6 0 13 5 16 10 3 6 -1 10 -9 10 -9 0
-16 -4 -16 -10z"/>
<path d="M805 23000 c3 -5 10 -10 16 -10 5 0 9 5 9 10 0 6 -7 10 -16 10 -8 0
-12 -4 -9 -10z"/>
<path d="M473 22993 c-20 -7 -15 -22 7 -20 20 1 27 12 13 20 -5 2 -14 2 -20 0z"/>
<path d="M340 22960 c0 -5 5 -10 10 -10 6 0 10 5 10 10 0 6 -4 10 -10 10 -5 0
-10 -4 -10 -10z"/>
<path d="M265 22900 c-3 -5 -1 -10 4 -10 6 0 11 5 11 10 0 6 -2 10 -4 10 -3 0
-8 -4 -11 -10z"/>
<path d="M1532 22888 c-8 -8 -9 -15 -1 -25 9 -10 8 -13 -1 -13 -6 0 -14 9 -17
20 -7 26 -19 26 -26 0 -3 -13 1 -24 14 -30 26 -15 54 2 57 34 2 28 -7 33 -26
14z"/>
<path d="M1640 22845 c14 -16 40 -20 40 -6 0 9 -24 21 -42 21 -6 0 -6 -6 2
-15z"/>
<path d="M1580 22830 c0 -5 5 -10 10 -10 6 0 10 5 10 10 0 6 -4 10 -10 10 -5
0 -10 -4 -10 -10z"/>
<path d="M900 22727 c0 -8 7 -17 15 -21 8 -3 15 -2 15 3 0 5 -7 14 -15 21 -12
10 -15 10 -15 -3z"/>
<path d="M900 22649 c0 -5 5 -7 10 -4 6 3 10 8 10 11 0 2 -4 4 -10 4 -5 0 -10
-5 -10 -11z"/>
<path d="M1750 22619 c0 -5 5 -7 10 -4 6 3 10 8 10 11 0 2 -4 4 -10 4 -5 0
-10 -5 -10 -11z"/>
<path d="M1817 22623 c-8 -7 38 -33 58 -33 7 0 16 -6 18 -12 4 -8 6 -7 6 4 1
9 -13 24 -31 32 -35 18 -42 19 -51 9z"/>
<path d="M1616 22613 c-11 -11 -6 -23 9 -23 8 0 15 4 15 9 0 13 -16 22 -24 14z"/>
<path d="M1970 22600 c0 -5 7 -10 15 -10 8 0 15 5 15 10 0 6 -7 10 -15 10 -8
0 -15 -4 -15 -10z"/>
<path d="M2161 22504 c0 -11 3 -14 6 -6 3 7 2 16 -1 19 -3 4 -6 -2 -5 -13z"/>
<path d="M1905 22490 c3 -5 8 -10 11 -10 2 0 4 5 4 10 0 6 -5 10 -11 10 -5 0
-7 -4 -4 -10z"/>
<path d="M452 22434 c6 -13 15 -24 19 -24 4 0 15 -8 25 -17 13 -13 19 -14 22
-5 2 6 10 12 18 12 19 0 18 13 -5 38 -23 27 -31 28 -31 2 0 -11 -4 -20 -10
-20 -5 0 -10 6 -10 14 0 7 -9 16 -19 19 -17 4 -18 2 -9 -19z"/>
<path d="M1065 22330 c-3 -6 2 -13 12 -17 10 -3 21 -8 26 -10 4 -2 7 0 7 6 0
16 -38 33 -45 21z"/>
<path d="M2568 22303 c7 -3 16 -2 19 1 4 3 -2 6 -13 5 -11 0 -14 -3 -6 -6z"/>
<path d="M1704 22275 c-9 -22 1 -29 15 -11 8 10 9 16 1 21 -5 3 -13 -1 -16
-10z"/>
<path d="M895 22220 c-8 -13 8 -18 29 -10 19 6 19 7 -2 12 -12 4 -24 2 -27 -2z"/>
<path d="M2028 22209 c-10 -6 -18 -18 -18 -28 0 -23 36 -35 44 -15 3 8 15 14
26 14 24 0 26 13 3 31 -11 10 -14 10 -9 2 4 -8 2 -13 -8 -13 -8 0 -16 4 -18 9
-2 6 -10 6 -20 0z"/>
<path d="M1988 22184 c-4 -3 -14 -7 -24 -8 -27 -4 -29 -26 -3 -26 12 0 19 3
16 7 -4 3 1 12 11 19 9 7 14 14 11 14 -3 0 -8 -3 -11 -6z"/>
<path d="M2575 22150 c-3 -5 -1 -10 4 -10 6 0 11 5 11 10 0 6 -2 10 -4 10 -3
0 -8 -4 -11 -10z"/>
<path d="M1920 22140 c0 -6 -4 -8 -10 -5 -5 3 -10 -1 -10 -10 0 -11 5 -15 15
-11 10 3 15 -1 15 -14 0 -10 5 -22 10 -25 6 -3 10 5 10 19 0 13 6 26 13 29 15
5 9 13 -20 21 -15 5 -23 3 -23 -4z"/>
<path d="M1987 22130 c-3 -11 -1 -20 4 -20 5 0 9 2 9 4 0 2 3 11 6 20 3 9 2
16 -4 16 -5 0 -12 -9 -15 -20z"/>
<path d="M2350 22110 c0 -5 5 -10 10 -10 6 0 10 5 10 10 0 6 -4 10 -10 10 -5
0 -10 -4 -10 -10z"/>
<path d="M1884 22090 c-31 -12 -39 -30 -15 -30 30 0 51 11 51 26 0 16 -6 16
-36 4z"/>
<path d="M2630 22059 c0 -14 5 -17 21 -11 26 10 26 27 -1 28 -13 1 -20 -5 -20
-17z"/>
<path d="M2445 22060 c3 -5 10 -10 16 -10 5 0 9 5 9 10 0 6 -7 10 -16 10 -8 0
-12 -4 -9 -10z"/>
<path d="M2440 22030 c0 -5 5 -10 10 -10 6 0 10 5 10 10 0 6 -4 10 -10 10 -5
0 -10 -4 -10 -10z"/>
<path d="M2535 21999 c-11 -17 1 -21 15 -4 8 9 8 15 2 15 -6 0 -14 -5 -17 -11z"/>
<path d="M2584 21953 c1 -21 6 -37 11 -35 14 3 13 64 -1 69 -7 2 -11 -11 -10
-34z"/>
<path d="M535 21948 c6 -16 4 -20 -8 -15 -10 3 -17 -1 -20 -14 -3 -10 -1 -19
4 -19 5 0 9 5 9 10 0 6 7 10 15 10 8 0 24 9 34 19 19 19 19 19 -2 25 -35 9
-39 7 -32 -16z"/>
<path d="M1770 21950 c0 -19 11 -26 23 -14 8 8 -3 34 -14 34 -5 0 -9 -9 -9
-20z"/>
<path d="M460 21930 c0 -5 5 -10 11 -10 5 0 7 5 4 10 -3 6 -8 10 -11 10 -2 0
-4 -4 -4 -10z"/>
<path d="M1706 21932 c-8 -13 35 -45 46 -34 5 5 0 15 -16 25 -14 9 -27 13 -30
9z"/>
<path d="M530 21888 c0 -4 7 -8 15 -8 8 0 15 4 15 8 0 5 -7 9 -15 9 -8 0 -15
-4 -15 -9z"/>
<path d="M2565 21830 c-3 -5 -2 -10 4 -10 5 0 13 5 16 10 3 6 2 10 -4 10 -5 0
-13 -4 -16 -10z"/>
<path d="M2326 21803 c-11 -27 8 -34 21 -7 9 19 8 24 -2 24 -7 0 -16 -8 -19
-17z"/>
<path d="M2690 21801 c0 -6 9 -9 20 -8 11 1 20 5 20 9 0 4 -9 8 -20 8 -11 0
-20 -4 -20 -9z"/>
<path d="M766 21785 c-3 -8 -1 -15 4 -15 6 0 10 7 10 15 0 8 -2 15 -4 15 -2 0
-6 -7 -10 -15z"/>
<path d="M2364 21788 c-12 -19 11 -27 36 -13 14 8 21 15 15 15 -5 1 -18 3 -27
5 -10 2 -21 -1 -24 -7z"/>
<path d="M2540 21775 c0 -14 5 -25 10 -25 6 0 10 11 10 25 0 14 -4 25 -10 25
-5 0 -10 -11 -10 -25z"/>
<path d="M1570 21770 c0 -5 5 -10 10 -10 6 0 10 5 10 10 0 6 -4 10 -10 10 -5
0 -10 -4 -10 -10z"/>
<path d="M1790 21746 c0 -17 42 -16 48 2 2 7 -6 12 -22 12 -15 0 -26 -6 -26
-14z"/>
<path d="M1905 21750 c-3 -5 -1 -10 4 -10 6 0 11 5 11 10 0 6 -2 10 -4 10 -3
0 -8 -4 -11 -10z"/>
<path d="M1550 21730 c0 -5 5 -10 10 -10 6 0 10 5 10 10 0 6 -4 10 -10 10 -5
0 -10 -4 -10 -10z"/>
<path d="M2355 21610 c-3 -5 -1 -10 4 -10 6 0 11 5 11 10 0 6 -2 10 -4 10 -3
0 -8 -4 -11 -10z"/>
<path d="M2040 21595 c0 -8 4 -15 10 -15 5 0 7 7 4 15 -4 8 -8 15 -10 15 -2 0
-4 -7 -4 -15z"/>
<path d="M2281 21594 c0 -11 3 -14 6 -6 3 7 2 16 -1 19 -3 4 -6 -2 -5 -13z"/>
<path d="M2301 21594 c0 -11 3 -14 6 -6 3 7 2 16 -1 19 -3 4 -6 -2 -5 -13z"/>
<path d="M2650 21595 c0 -8 7 -15 15 -15 8 0 15 4 15 9 0 5 -7 11 -15 15 -9 3
-15 0 -15 -9z"/>
<path d="M1207 21535 c-4 -8 -2 -17 3 -20 6 -4 10 3 10 14 0 25 -6 27 -13 6z"/>
<path d="M400 21516 c0 -2 7 -6 15 -10 8 -3 15 -1 15 4 0 6 -7 10 -15 10 -8 0
-15 -2 -15 -4z"/>
<path d="M2040 21502 c0 -9 6 -12 16 -8 8 3 22 -1 31 -9 16 -17 35 -16 33 0
-1 6 -8 9 -17 7 -8 -2 -12 1 -9 6 3 5 -8 12 -24 14 -21 3 -30 0 -30 -10z"/>
<path d="M1445 21450 c-3 -5 1 -10 10 -10 9 0 13 5 10 10 -3 6 -8 10 -10 10
-2 0 -7 -4 -10 -10z"/>
<path d="M916 21393 c-13 -13 -5 -23 20 -23 19 0 25 -4 20 -15 -3 -8 -1 -15 3
-15 5 0 7 -10 3 -22 -3 -14 -2 -19 6 -14 22 13 13 54 -17 75 -15 11 -31 18
-35 14z"/>
<path d="M1185 21370 c3 -5 8 -10 11 -10 2 0 4 5 4 10 0 6 -5 10 -11 10 -5 0
-7 -4 -4 -10z"/>
<path d="M828 21280 c-18 -21 -13 -26 11 -11 7 5 12 14 10 20 -3 7 -11 3 -21
-9z"/>
<path d="M920 21275 c0 -14 5 -25 10 -25 6 0 10 11 10 25 0 14 -4 25 -10 25
-5 0 -10 -11 -10 -25z"/>
<path d="M1185 21290 c3 -5 8 -10 11 -10 2 0 4 5 4 10 0 6 -5 10 -11 10 -5 0
-7 -4 -4 -10z"/>
</g>
</svg>
